# xmcd
#
# Track frame offsets:
#	150
#	18340
#	34103
#	46433
#	58348
#	74473
#	86740
#	99615
#	110235
#	122680
#	134063
#	149820
#	162775
#	179830
#	191135
#	206410
#
# Disc length: 2905 seconds
#
# Revision: 0
# Processed by: cddbd v1.5.2PL0 Copyright (c) Steve Scherf et al.
# Submitted via: EasyCDDAExtractor 9.0.0.1
#
DISCID=040b5710
DTITLE=Sil Austin - Tenor Sax
DYEAR=1991
DGENRE=
TTITLE0=Danny Boy
TTITLE1=Broken Promises
TTITLE2=Summer Time
TTITLE3=I'll Walk Alone
TTITLE4=The Rose Tattoo
TTITLE5=My Foolish Heart
TTITLE6=Harlem Nocturne
TTITLE7=Moonlight In Vermont
TTITLE8=September Song
TTITLE9=Red Sails In The Sunset
TTITLE10=Ruby
TTITLE11=I Can't Get Started
TTITLE12=(All Of A Sudden)My Heart Sings
TTITLE13=Nature Boy
TTITLE14=Stardust
TTITLE15=Ebb Tide
EXTD=
EXTT0=
EXTT1=
EXTT2=
EXTT3=
EXTT4=
EXTT5=
EXTT6=
EXTT7=
EXTT8=
EXTT9=
EXTT10=
EXTT11=
EXTT12=
EXTT13=
EXTT14=
EXTT15=
PLAYORDER=
